<svg width="108" height="108" viewBox="0 0 108 108" fill="none" xmlns="http://www.w3.org/2000/svg">
<g clip-path="url(#clip0_941_350)">
<rect width="108" height="108" rx="54" fill="black"/>
<g clip-path="url(#clip1_941_350)">
<g clip-path="url(#clip2_941_350)">
<path d="M61.3662 53.6404C61.8001 54.0553 62.0468 54.3006 62.0909 54.9191C62.0977 55.8987 62.0428 56.7143 61.714 57.6389C60.5162 55.8425 60.5162 55.8425 60.6707 54.6835C60.8229 54.1945 60.8229 54.1945 61.0185 53.8142C61.1333 53.7568 61.248 53.6995 61.3662 53.6404Z" fill="#42D9FF"/>
<path d="M39.8198 22.3808C41.3985 21.9257 42.8843 21.823 44.4487 22.3808C44.5626 22.4213 44.6772 22.4622 44.7944 22.5039C46.0401 23.0337 46.9088 24.021 47.5259 25.208C47.784 25.9475 47.8522 26.559 47.8501 27.3359C47.8503 27.4708 47.8509 27.6061 47.8511 27.7451C47.8079 29.3038 47.2227 30.5684 46.5356 31.9424C46.4059 33.2676 46.5669 34.3367 47.0786 35.5625C47.2306 35.9411 47.231 35.9415 47.231 36.289C47.3671 36.3284 47.5038 36.3676 47.644 36.4082C48.7747 36.8175 49.8105 37.2232 50.6108 38.1465C51.2212 38.811 51.775 38.8807 52.6479 38.9922C54.5424 39.2915 56.0101 40.3434 57.1421 41.8515C57.713 42.8359 57.7792 43.8201 57.8853 44.9453C58.027 45.574 58.214 45.7973 58.7065 46.1982C58.7697 45.9213 58.77 45.9212 58.8345 45.6387C59.6255 42.2603 59.6254 42.2598 61.022 41.0957C61.7256 40.6626 62.4869 40.4052 63.2759 40.166C64.3414 39.8214 64.8307 39.3107 65.3599 38.3066C65.6495 37.2844 65.7753 36.1101 65.4878 35.0723C65.057 34.5101 64.6076 34.1303 64.0464 33.7012C63.2778 33.1021 62.8841 32.3795 62.7056 31.4209C62.6892 30.9938 62.6832 30.566 62.6841 30.1387C62.6836 29.9151 62.6836 29.6912 62.6831 29.4609C62.7062 28.8133 62.706 28.8132 62.8052 28.2197C62.8298 28.0715 62.854 27.9232 62.8794 27.7705C62.6974 27.5521 62.6968 27.5515 62.2925 27.5527C61.8385 27.5559 61.8378 27.5561 61.5513 27.8105C61.0937 28.4048 61.2374 29.143 61.3149 29.8564C61.3944 30.1698 61.4815 30.4817 61.5757 30.791C61.9864 32.1758 62.0542 33.6627 61.5317 35.0303C61.0172 35.9544 60.2729 36.8847 59.3267 37.3799C58.8291 37.5207 58.4085 37.5458 57.8921 37.5381C57.6439 37.5364 57.6428 37.5368 57.3901 37.5351C56.9686 37.506 56.9677 37.5055 56.6206 37.332V36.9844C56.7252 36.9629 56.8302 36.941 56.938 36.9189C57.7928 36.7042 57.7934 36.7039 58.4438 36.1426C58.7731 35.4997 58.8803 35.115 58.8804 34.3769C58.7658 34.5202 58.6508 34.6639 58.5327 34.8115C57.8335 35.394 57.5054 35.3211 56.6206 35.2461C56.7926 35.1314 56.9649 35.0166 57.1421 34.8984C57.8217 34.2786 57.8219 34.2779 58.0405 33.4199C58.0502 32.2126 58.0501 32.212 57.8374 31.0303C57.4855 29.6228 57.3527 27.8218 58.0435 26.5098C58.6219 25.6521 59.4056 24.9573 60.4409 24.7441C61.5337 24.6953 62.2255 25.0573 63.144 25.6299C63.5959 25.9119 63.5969 25.9116 64.271 25.8574C64.6129 25.6114 64.6135 25.611 64.9331 25.2822C66.2279 24.0911 67.6567 23.8672 69.3804 23.8867C71.0592 24.0429 72.5296 24.6784 73.7339 25.8603C74.0962 26.318 74.1812 26.6686 74.1812 27.249C74.2768 27.6675 74.3927 28.0574 74.5288 28.4658C74.5506 29.0538 74.5592 29.5677 74.4097 30.1387C74.3321 30.7279 74.5341 30.9416 74.8765 31.4209C74.9519 31.5281 75.0282 31.6356 75.106 31.7461C75.317 32.0449 75.5317 32.3416 75.7466 32.6377C75.5224 32.8768 75.289 33.1084 75.0503 33.333H74.7026C74.7564 33.6125 74.7571 33.6131 74.812 33.8984C74.8805 34.5834 74.8298 34.6796 74.5288 35.2461V36.4629C74.0055 36.9859 73.3961 36.8847 72.6929 36.9082C71.8018 36.8614 71.8007 36.8616 71.0513 37.1582C71.0248 37.5233 71.0132 37.8899 71.0083 38.2558C71.0038 38.4558 70.9992 38.6563 70.9946 38.8623C71.0585 39.4845 71.1097 39.6986 71.5737 40.1133C72.0054 40.2839 72.4117 40.4235 72.856 40.5478C73.9861 40.8679 74.7449 41.2284 75.4204 42.2217C75.688 42.7121 75.8116 43.1663 75.9312 43.7099C76.1907 44.6663 76.779 45.2789 77.4653 45.959C78.2048 46.6971 78.7836 47.411 78.9683 48.4629C78.9562 49.5874 78.8782 50.4997 78.1802 51.414C77.8488 51.737 77.5079 52.0031 77.1372 52.2832C76.6354 53.287 76.8396 54.9573 77.1274 56.0107C77.4418 56.7812 77.8138 57.4721 78.2671 58.168C78.692 58.841 78.9568 59.5001 79.1909 60.2578C79.2333 60.3889 79.2762 60.5211 79.3198 60.6562C79.5822 61.4755 79.8301 62.2992 80.0776 63.123C80.7901 65.4882 81.5784 67.7548 82.5835 70.0107C82.9579 70.8816 83.2857 71.6734 83.0493 72.623C82.3502 74.1975 82.3491 74.1981 81.5347 74.5859C81.4033 74.6266 81.2715 74.667 81.1362 74.709V74.1875C81.011 74.2125 80.8854 74.2379 80.7563 74.2637C80.2674 74.1876 80.2665 74.1878 79.8042 73.7168C79.1769 72.7926 79.3274 71.774 79.354 70.7002C79.3519 68.6554 79.0428 67.3554 77.6587 65.8428C77.7028 66.0368 77.747 66.2317 77.7925 66.4316C78.8472 71.1712 79.314 75.9531 78.5806 80.7861C78.5266 81.1501 78.4822 81.5146 78.438 81.8799C78.2074 83.6228 77.7143 85.2118 77.1353 86.8691C76.7427 88.0098 76.4241 89.1393 76.1919 90.3232C76.1656 90.4569 76.1389 90.5908 76.1118 90.7285C75.7098 92.9244 75.7022 95.1395 75.6597 97.3642C75.5931 100.83 75.5926 100.83 75.4819 102.191C75.3727 103.572 75.3666 104.95 75.3667 106.334C75.3663 106.777 75.3631 107.221 75.3599 107.664C75.3594 107.95 75.3591 108.236 75.3589 108.522C75.357 108.718 75.3569 108.718 75.355 108.918C75.3605 110.208 75.6077 111.187 76.4907 112.145C76.977 112.617 77.4992 113.021 78.0503 113.413C78.1645 113.495 78.2793 113.577 78.397 113.662C79.6672 114.56 80.8343 115.182 82.3677 115.475C82.8731 115.611 83.1125 115.827 83.397 116.26C83.4404 116.737 83.4404 116.738 83.397 117.129C82.3673 117.579 81.3479 117.534 80.2456 117.53C80.0606 117.533 79.8747 117.536 79.6841 117.539C78.5325 117.54 77.5486 117.38 76.4419 117.073C75.3807 116.833 74.2875 116.886 73.2046 116.894C71.8769 116.873 71.876 116.873 71.1919 116.385C70.7124 115.663 70.7672 115.182 70.8774 114.347C70.9595 114.08 71.0478 113.815 71.1401 113.552C71.4473 112.556 71.4789 111.625 71.4644 110.588C71.4626 110.404 71.4613 110.22 71.4595 110.031C71.4012 107.073 70.5668 104.312 69.6128 101.529C69.168 100.127 69.0731 98.8305 69.063 97.3642C69.0612 97.1846 69.0599 97.0044 69.0581 96.8193C69.0765 95.1926 69.4007 93.7187 70.0415 92.2246C70.8534 89.8418 70.3989 86.9516 70.145 84.4922C69.9597 82.6842 69.8964 80.8714 69.8345 79.0556H69.4868C69.4691 79.2759 69.4513 79.4967 69.4331 79.7236C69.3265 80.6733 69.0691 81.5485 68.7808 82.457C68.7268 82.6298 68.6723 82.8025 68.6167 82.9805C68.4449 83.527 68.2708 84.0735 68.0962 84.6191C68.0416 84.7922 67.9864 84.9652 67.9302 85.1435C66.0615 91.0575 66.0616 91.0582 64.728 93.3779C64.052 94.5587 63.9605 95.6257 63.8979 96.9726C63.7598 99.781 63.2291 102.436 62.5552 105.16C62.5038 105.368 62.5041 105.368 62.4517 105.58C62.3873 105.838 62.3219 106.095 62.2554 106.353C61.9903 107.397 61.815 108.443 61.813 109.524C61.8124 109.712 61.8127 109.713 61.812 109.904C61.8157 110.447 61.8201 110.99 61.8296 111.533C61.8352 111.864 61.8379 112.196 61.8394 112.527C61.9059 114.444 62.6149 116.142 63.6509 117.737C64.0141 118.312 64.0957 118.497 64.1294 119.204C63.8736 119.864 63.6851 119.962 63.0532 120.258C61.4934 120.437 59.52 120.43 58.1636 119.562C57.6423 119.007 57.627 118.623 57.6343 117.868C57.6629 117.481 57.735 117.141 57.8325 116.767C58.0466 115.839 58.0895 114.927 58.1196 113.978C58.129 113.712 58.1296 113.712 58.1392 113.44C58.1509 113.088 58.1614 112.736 58.1714 112.384C58.1826 112 58.1973 111.616 58.2134 111.232C58.2724 108.901 58.0833 106.348 57.4897 104.09C56.8936 99.7186 57.3738 95.9175 59.0718 91.8838C59.8446 89.9924 60.1206 88.2253 60.1274 86.1914C60.1292 85.9711 60.1296 85.9708 60.1313 85.7461C60.1338 85.4297 60.1355 85.1132 60.1372 84.7969C60.1401 84.2936 60.1446 83.7903 60.1489 83.2871C60.1611 81.8571 60.1712 80.4271 60.1802 78.9971C60.1858 78.1195 60.1935 77.2418 60.2017 76.3642C60.2044 76.0327 60.206 75.7007 60.2075 75.3691C60.2156 73.6197 60.2727 71.919 60.5405 70.1885C60.7223 68.9911 60.6413 68.147 60.0981 67.0605C59.5458 67.6984 59.2768 68.412 58.978 69.1894C58.9245 69.3273 58.871 69.4654 58.8159 69.6074C58.431 70.6271 58.1439 71.6484 57.8979 72.709C57.6193 73.8981 57.2931 75.1816 56.4468 76.1006C56.0421 76.1823 56.041 76.1815 55.5708 76.1738C55.4017 76.1724 55.2323 76.1714 55.0581 76.1699C54.7935 76.1623 54.7926 76.162 54.5229 76.1543C54.3459 76.1526 54.1682 76.1511 53.9858 76.1494C52.6802 76.1295 52.679 76.1297 52.2729 75.9267C52.2935 76.0201 52.3143 76.1137 52.3354 76.2099C52.8975 78.8326 53.0684 81.3447 53.0669 84.0215C53.0198 87.9996 53.0194 88 54.3052 91.7139C54.4279 91.949 54.5507 92.1848 54.6733 92.4199C54.7359 92.5376 54.7993 92.6551 54.8638 92.7764C55.1839 93.3786 55.4954 93.986 55.8052 94.5937C55.8616 94.7009 55.9179 94.8085 55.9761 94.9189C56.8356 96.6007 57.0494 98.124 57.022 100.005C57.0204 100.223 57.0187 100.441 57.0171 100.665C56.9529 105.6 56.9532 105.6 56.5288 107.663C56.4505 108.067 56.424 108.428 56.4233 108.838C56.423 108.98 56.4227 109.123 56.4224 109.27C56.4232 109.421 56.4235 109.573 56.4243 109.729C56.4252 109.967 56.4254 109.967 56.4263 110.209C56.4351 111.411 56.4644 112.613 56.5112 113.814C56.5166 113.974 56.5223 114.134 56.5278 114.298C56.5653 115.133 56.6684 115.819 56.9683 116.607C57.1162 117.736 56.8689 118.299 56.2378 119.235C55.3277 120.187 53.7941 120.083 52.563 120.119C52.2457 120.123 51.9281 120.126 51.6108 120.128C51.3691 120.133 51.368 120.133 51.1216 120.139C50.9664 120.14 50.8108 120.141 50.6509 120.142C50.5118 120.143 50.3723 120.145 50.229 120.146C49.7397 120.069 49.502 119.9 49.144 119.562C49.0169 119.016 49.0464 118.683 49.3364 118.197C49.7055 117.701 50.1004 117.229 50.5024 116.759C51.7041 115.305 52.211 113.787 52.2729 111.913C52.2819 111.707 52.2911 111.502 52.3003 111.29C52.3707 108.303 51.6137 105.534 50.7954 102.688C50.2565 100.811 49.7532 98.955 49.4282 97.0273C49.1534 95.5652 48.6227 94.4604 47.7388 93.2764C47.2702 92.5936 46.9088 91.8653 46.5327 91.1289C46.2059 90.5021 45.8722 89.9815 45.395 89.4541C43.84 87.5664 42.7105 83.5638 42.7104 81.1416H42.3628C42.3688 81.2809 42.3751 81.4209 42.3813 81.5644C42.4325 83.7137 42.0968 85.7603 41.5474 87.8349C40.9637 90.345 41.3405 92.5329 42.1177 94.9551C43.1502 98.2055 42.6594 101.261 41.1548 104.242C40.789 104.979 40.5217 105.74 40.2759 106.523C40.2116 106.715 40.1478 106.907 40.0815 107.104C39.6411 108.583 39.5131 109.979 39.5044 111.522C39.5027 111.701 39.5013 111.88 39.4995 112.064C39.5122 113.191 39.6767 114.195 39.9849 115.279C40.1528 115.934 40.1754 116.457 40.1021 117.129C39.7873 117.593 39.6016 117.643 39.0591 117.824C38.6573 117.847 38.2544 117.86 37.8521 117.867C37.6084 117.873 37.3643 117.878 37.1206 117.884C36.739 117.892 36.3567 117.9 35.9751 117.907C34.6847 117.932 33.4509 117.976 32.188 118.269C31.2818 118.43 30.3595 118.395 29.4419 118.389C29.2416 118.39 29.0408 118.392 28.8345 118.394C28.5447 118.393 28.5439 118.392 28.2485 118.392C28.075 118.391 27.901 118.391 27.7222 118.391C27.1642 118.339 26.6028 118.234 26.1929 117.824C26.1385 117.422 26.1386 117.422 26.1929 116.955C26.6849 116.346 27.0504 116.173 27.812 116.042C30.2179 115.499 33.1864 113.836 34.5386 111.739C35.2569 110.114 35.2867 108.349 35.2661 106.6C35.2644 106.385 35.263 106.17 35.2612 105.949C35.2567 105.451 35.2503 104.953 35.2437 104.455C35.2354 103.804 35.2313 103.153 35.229 102.502C35.2255 101.523 35.2173 100.544 35.2065 99.5654C35.2029 99.174 35.2006 98.7821 35.1997 98.3906C35.1938 96.3601 35.1725 94.5363 34.3843 92.6435C34.16 92.0081 34.1232 91.4507 34.104 90.7793C34.0541 89.4152 33.6609 88.3072 33.1479 87.0527C30.5355 80.582 32.1084 72.9153 33.728 66.376C34.0099 65.2294 34.2157 64.1175 34.2124 62.9316C34.2129 62.7713 34.2129 62.6105 34.2134 62.4453C34.2078 61.995 34.2084 61.9942 34.0171 61.4971C33.9348 61.6736 33.8518 61.8503 33.7671 62.0322C33.1075 63.4164 32.4059 64.631 31.4517 65.8398C29.9528 67.8228 29.9529 67.8229 29.3335 70.1133C29.4663 70.5718 29.4661 70.572 29.9097 70.8418C30.4503 71.3051 30.617 71.678 30.8657 72.3408C30.9405 72.5321 31.0152 72.7238 31.0923 72.9209C31.2495 73.5514 31.2466 73.9149 31.061 74.5351C30.7962 74.8909 30.7959 74.8916 30.4741 75.1875C30.3688 75.2869 30.2633 75.3868 30.1548 75.4892C29.5347 76.0144 29.1411 76.167 28.3257 76.1445C27.6444 76.0682 26.9684 75.9134 26.3667 75.5791C26.0559 75.0776 25.978 74.7178 26.0044 74.1328C26.011 73.9853 26.0181 73.8375 26.0249 73.6855C26.0338 73.5322 26.0422 73.3786 26.0513 73.2207C26.0568 73.0775 26.0622 72.9337 26.0679 72.7861C26.1218 71.7346 26.2716 70.7133 26.4458 69.6767C26.7617 67.7791 26.8855 65.8803 27.0024 63.9619C27.1705 61.2582 27.348 58.8134 28.8003 56.4551C29.5302 55.2561 29.7398 54.3371 29.7905 52.9346C29.8975 51.6354 30.3024 50.3862 30.7134 49.1533C30.7294 48.8894 30.7357 48.6247 30.7349 48.3603C30.7353 48.224 30.7364 48.0877 30.7368 47.9473C30.7363 47.5783 30.7358 47.5775 30.5396 47.2412C30.4038 44.983 30.5679 43.1137 32.104 41.3301C33.1805 40.3251 34.2679 39.9717 35.6743 39.6201C36.5007 39.3427 37.0921 38.8844 37.769 38.3467C38.2939 37.9482 38.789 37.7255 39.4067 37.5058V35.9414C39.2267 35.9495 39.0463 35.9575 38.8608 35.9658C38.6228 35.9723 38.384 35.9782 38.146 35.9844C38.0277 35.9902 37.9085 35.9959 37.7866 36.0019C37.1908 36.0135 36.8588 35.9844 36.3687 35.6338C36.0351 35.1467 36.0595 34.7716 36.0894 34.1933C36.1064 33.7685 36.0246 33.3986 35.9292 32.9853C35.9077 32.774 35.8859 32.5625 35.8638 32.3447C35.8279 32.1547 35.7923 31.9643 35.7554 31.7685C35.5834 31.6539 35.4111 31.539 35.2339 31.4209C35.2991 30.7694 35.4371 30.3038 35.7661 29.748C36.1845 28.9653 36.1393 28.2767 36.103 27.4062C36.1037 26.9263 36.1684 26.5729 36.3101 26.1181C36.3566 25.9175 36.4027 25.7164 36.4507 25.5098C36.2175 25.1458 36.2169 25.145 35.9292 24.8144C35.8966 24.1629 35.8966 24.1625 35.9292 23.5976C36.0902 23.5279 36.0911 23.5282 36.2554 23.457C36.6766 23.2584 36.6775 23.2576 36.9731 22.7285C37.3272 22.7345 37.6818 22.7426 38.0356 22.7568C38.6661 22.7218 39.2142 22.558 39.8198 22.3808ZM52.8423 51.7285C52.3133 52.5652 51.8036 53.4388 51.1245 54.1631C51.0214 54.2588 50.9209 54.3514 50.8208 54.4443C49.5969 55.6119 49.0677 56.764 49.0239 58.456C49.0216 58.6509 49.0193 58.8401 49.0171 59.0293C48.9108 60.1851 48.8433 60.9958 49.5493 61.9639C50.0045 62.5393 50.3978 63.1056 50.7378 63.7578C50.8179 63.9159 50.8183 63.9161 50.897 64.0713C51.6701 65.5714 51.8398 66.9936 51.8296 68.6631C51.8266 68.853 51.8237 69.0374 51.8208 69.2217C51.8164 69.7624 51.8115 70.3031 51.8042 70.8437C51.8023 70.9646 51.8011 71.0819 51.7993 71.1992H51.9731C52.5063 70.2855 53.0697 69.7919 53.9829 69.2646C54.5672 68.9391 55.0371 68.6592 55.5015 68.1767C56.5302 66.5997 56.5305 66.5989 56.3198 62.5068C56.0802 60.8319 55.9963 59.1359 56.3091 57.4648C56.4697 56.7118 56.5808 55.9702 56.6675 55.2051C55.7812 54.6345 54.9569 54.075 54.2661 53.2715C53.8223 52.7217 53.3469 52.2236 52.8423 51.7285ZM62.6899 51.7285C62.5266 52.3691 62.3584 53.0073 62.1685 53.6406C61.7545 54.564 61.4325 55.3985 61.4722 56.4219C61.7222 56.8569 61.8202 57.1195 61.854 57.6289C61.8478 57.9277 61.8483 57.9278 61.8423 58.2207C61.8367 58.6678 61.8287 59.1154 61.8198 59.5625C61.7884 61.1121 61.8161 62.5565 62.1685 64.0713C63.4081 62.8592 65.1192 60.9846 65.3394 59.2139C65.553 56.3037 64.5554 53.9485 62.6899 51.7285Z" fill="url(#paint0_linear_941_350)"/>
<path d="M64.9144 25.3333C67.1091 23.3146 70.5414 23.6099 72.9183 25.1975C73.5307 25.7032 73.9252 26.055 74.1614 26.8225V27.3001C74.2571 27.7187 74.3739 28.1084 74.5101 28.5169C74.5319 29.1051 74.5396 29.6196 74.39 30.1907C74.3125 30.7799 74.5152 30.9935 74.8577 31.4729C74.9708 31.6336 74.9707 31.634 75.0862 31.7981C75.2973 32.097 75.512 32.3936 75.7269 32.6897C75.5027 32.9288 75.2703 33.1604 75.0316 33.385H74.6839C74.7376 33.6644 74.7375 33.6646 74.7923 33.9495C74.8608 34.6346 74.811 34.7308 74.5101 35.2971V36.5139C73.9865 37.0374 73.3767 36.9357 72.6732 36.9593C71.7821 36.9124 71.7818 36.9127 71.0325 37.2093C71.0061 37.5743 70.9935 37.9409 70.9886 38.3069C70.9841 38.507 70.9795 38.7072 70.9749 38.9134C71.0388 39.536 71.0898 39.7506 71.554 40.1653C71.9858 40.336 72.3918 40.4755 72.8362 40.5999C73.9666 40.92 74.7251 41.2795 75.4007 42.2727C75.6684 42.7634 75.7918 43.2181 75.9114 43.762C76.1711 44.7183 76.7602 45.3309 77.4466 46.011C78.1861 46.7492 78.7639 47.463 78.9485 48.5149C78.9365 49.6392 78.8592 50.5509 78.1614 51.4651C77.8299 51.7883 77.4884 52.054 77.1175 52.3343C76.6155 53.3381 76.8198 55.0093 77.1077 56.0628C77.4221 56.8333 77.795 57.5241 78.2484 58.22C78.6732 58.8931 78.9371 59.5521 79.1712 60.3098C79.2136 60.441 79.2565 60.5722 79.3001 60.7073C79.5626 61.5269 79.8112 62.3509 80.0589 63.1751C80.7713 65.5403 81.5587 67.8068 82.5638 70.0628C82.9382 70.9337 83.2662 71.7253 83.0296 72.6751C82.3306 74.2493 82.3301 74.2493 81.5159 74.637C81.3186 74.6982 81.3179 74.6986 81.1165 74.761V74.2395C80.9911 74.2646 80.8658 74.2899 80.7366 74.3157C80.2476 74.2396 80.247 74.2391 79.7845 73.7679C79.1575 72.8437 79.3077 71.825 79.3343 70.7513C79.3322 68.7066 79.0232 67.4075 77.639 65.8948C77.6831 66.0888 77.7273 66.2828 77.7728 66.4827C78.8276 71.2224 79.2953 76.0049 78.5618 80.8382C78.5079 81.2021 78.4625 81.5667 78.4183 81.9319C78.1877 83.6749 77.6946 85.2638 77.1155 86.9212C76.723 88.0618 76.4044 89.1913 76.1722 90.3753C76.1459 90.5087 76.1192 90.6421 76.0921 90.7796C75.6901 92.9754 75.6825 95.1906 75.64 97.4153C75.5733 100.881 75.5729 100.881 75.4622 102.242C75.353 103.623 75.3469 105.001 75.347 106.385C75.3466 106.829 75.3434 107.273 75.3401 107.716C75.3396 108.002 75.3393 108.289 75.3392 108.574C75.3373 108.77 75.3372 108.77 75.3353 108.97C75.3409 110.26 75.5883 111.238 76.471 112.197C76.9573 112.668 77.4794 113.072 78.0306 113.464C78.145 113.546 78.2593 113.629 78.3773 113.714C79.6475 114.612 80.8146 115.233 82.348 115.526C82.8537 115.662 83.0927 115.878 83.3773 116.311C83.4207 116.789 83.4207 116.789 83.3773 117.18C82.3474 117.63 81.3284 117.586 80.2259 117.582C80.0408 117.585 79.8551 117.588 79.6644 117.591C78.5127 117.592 77.5291 117.431 76.4222 117.124C75.361 116.884 74.2688 116.938 73.1859 116.946C71.8578 116.925 71.8573 116.925 71.1732 116.437C70.6934 115.715 70.7484 115.234 70.8587 114.399C70.9408 114.132 71.0281 113.867 71.1204 113.604C71.4277 112.607 71.4592 111.676 71.4446 110.639C71.4429 110.456 71.4416 110.272 71.4398 110.083C71.3815 107.124 70.5471 104.364 69.5931 101.581C69.1482 100.179 69.0534 98.8818 69.0433 97.4153C69.0415 97.2358 69.0402 97.0563 69.0384 96.8714C69.0568 95.2445 69.381 93.7708 70.0218 92.2766C70.8338 89.8937 70.3802 87.0029 70.1263 84.5432C69.941 82.7355 69.8766 80.9232 69.8148 79.1077H69.4671C69.4494 79.3278 69.4316 79.5479 69.4134 79.7747C69.3069 80.7245 69.0495 81.5994 68.761 82.5081C68.707 82.6811 68.6527 82.8542 68.597 83.0325C68.4252 83.579 68.2511 84.1246 68.0765 84.6702C68.0219 84.8434 67.9677 85.0172 67.9114 85.1956C66.0428 91.1095 66.0419 91.1092 64.7083 93.429C64.0322 94.6098 63.9407 95.6769 63.8782 97.0237C63.74 99.8321 63.2104 102.487 62.5364 105.211C62.5021 105.35 62.4673 105.489 62.4319 105.632C62.3676 105.89 62.3022 106.147 62.2357 106.405C61.9705 107.449 61.7962 108.495 61.7943 109.576C61.7938 109.701 61.7927 109.827 61.7923 109.955C61.796 110.498 61.8014 111.041 61.8109 111.584C61.8165 111.916 61.8182 112.247 61.8196 112.578C61.8861 114.495 62.5961 116.193 63.6321 117.788C63.9954 118.363 64.076 118.548 64.1097 119.255C63.8539 119.915 63.6665 120.014 63.0345 120.31C61.4746 120.489 59.5003 120.482 58.1439 119.615C57.6224 119.058 57.6082 118.674 57.6155 117.919C57.6441 117.533 57.7153 117.193 57.8128 116.819C58.0269 115.891 58.0707 114.979 58.1009 114.03C58.1071 113.852 58.113 113.674 58.1194 113.491C58.1311 113.14 58.1417 112.788 58.1517 112.436C58.1629 112.052 58.1776 111.667 58.1937 111.283C58.2527 108.952 58.0635 106.4 57.47 104.142C56.8739 99.7707 57.3542 95.9694 59.0521 91.9358C59.8249 90.0444 60.1018 88.2774 60.1087 86.2434C60.1099 86.0966 60.1104 85.9494 60.1116 85.7981C60.1141 85.4818 60.1167 85.1652 60.1185 84.8489C60.1214 84.3458 60.1249 83.8423 60.1292 83.3391C60.1414 81.9091 60.1525 80.4782 60.1614 79.0481C60.167 78.1706 60.1738 77.2928 60.1819 76.4153C60.1847 76.0837 60.1873 75.7518 60.1888 75.4202C60.1968 73.671 60.2525 71.9708 60.5208 70.2405C60.694 69.0922 60.6341 68.2443 60.1546 67.1663C59.4454 65.502 58.8789 63.7954 58.3392 62.0696C58.2992 61.944 58.2593 61.8182 58.2181 61.6888C57.5877 59.664 57.2798 57.3734 57.8177 55.2903C57.8442 54.9321 57.8654 54.5729 57.8831 54.2141C57.9485 53.2116 58.0763 52.2373 58.2523 51.2483C58.275 51.1199 58.2982 50.991 58.3216 50.8587C58.4893 49.9492 58.4889 49.9488 58.6868 49.553C58.7353 48.9891 58.7649 48.4248 58.7952 47.8596C58.8611 47.2929 58.8614 47.2929 59.0482 46.8352C59.2352 46.357 59.1992 46.1274 59.0999 45.6302C58.9282 44.205 59.426 42.9025 60.2737 41.762C61.0649 40.9305 62.0599 40.6025 63.1321 40.262C64.2637 39.8883 64.7748 39.4305 65.3401 38.3577C65.6298 37.3354 65.7558 36.1612 65.4681 35.1233C65.0373 34.5611 64.5881 34.1815 64.0267 33.7522C63.2583 33.1532 62.8644 32.4314 62.6859 31.4729C62.6695 31.0459 62.6635 30.6181 62.6644 30.1907C62.6639 29.9671 62.6639 29.7433 62.6634 29.513C62.6865 28.8653 62.6864 28.8649 62.7855 28.2718C62.8101 28.1234 62.8353 27.9744 62.8607 27.8216C62.6787 27.6031 62.6781 27.6036 62.2737 27.6048C61.8192 27.6079 61.8186 27.6077 61.5316 27.8626C61.0742 28.4567 61.2177 29.1943 61.2952 29.9075C61.3747 30.2208 61.4618 30.5328 61.556 30.8421C61.9668 32.2271 62.0347 33.7145 61.512 35.0823C60.9974 36.0065 60.2532 36.9358 59.3069 37.4309C58.8092 37.5718 58.389 37.5979 57.8724 37.5901C57.624 37.5884 57.6238 37.5879 57.3704 37.5862C56.9486 37.557 56.9486 37.5569 56.6009 37.3831V37.0354C56.7056 37.014 56.8104 36.9931 56.9183 36.971C57.7734 36.7562 57.7738 36.7558 58.4241 36.1946C58.7535 35.5515 58.8607 35.1666 58.8607 34.428C58.746 34.5714 58.6312 34.7149 58.513 34.8626C57.8135 35.4453 57.4863 35.3722 56.6009 35.2971C56.773 35.1824 56.9451 35.0677 57.1224 34.9495C57.8022 34.3295 57.8021 34.3293 58.0208 33.471C58.0305 32.2637 58.0305 32.2635 57.8177 31.0813C57.4658 29.6739 57.334 27.8738 58.0247 26.5618C58.6031 25.7041 59.3859 25.0094 60.4212 24.7962C61.5142 24.7471 62.2057 25.1084 63.1243 25.6809C63.5767 25.9633 63.5769 25.9637 64.2513 25.9095C64.5939 25.6629 64.5942 25.6626 64.9144 25.3333ZM62.6898 51.7278C62.5264 52.3684 62.3582 53.0067 62.1683 53.6399C61.7543 54.5633 61.4332 55.3987 61.473 56.4221C61.7229 56.857 61.82 57.1199 61.8538 57.6292C61.8477 57.9278 61.8482 57.928 61.8421 58.221C61.8366 58.6679 61.8295 59.1149 61.8206 59.5618C61.7892 61.1116 61.8159 62.5567 62.1683 64.0716C63.408 62.8595 65.1199 60.985 65.3401 59.2141C65.5538 56.3038 64.5555 53.948 62.6898 51.7278Z" fill="url(#paint1_linear_941_350)"/>
</g>
</g>
</g>
<defs>
<linearGradient id="paint0_linear_941_350" x1="54.7145" y1="22" x2="54.7145" y2="120.351" gradientUnits="userSpaceOnUse">
<stop offset="0.389423" stop-color="#41D9FF"/>
<stop offset="1" stop-color="#79FF48"/>
</linearGradient>
<linearGradient id="paint1_linear_941_350" x1="70.0054" y1="23.9124" x2="70.0054" y2="120.403" gradientUnits="userSpaceOnUse">
<stop offset="0.235577" stop-color="#41D9FF"/>
<stop offset="1" stop-color="#79FF48"/>
</linearGradient>
<clipPath id="clip0_941_350">
<rect width="108" height="108" rx="54" fill="white"/>
</clipPath>
<clipPath id="clip1_941_350">
<rect width="108" height="108" fill="white"/>
</clipPath>
<clipPath id="clip2_941_350">
<rect width="108" height="108" fill="white"/>
</clipPath>
</defs>
</svg>
